# xmcd
#
# Track frame offsets:
#	150
#	16486
#	40288
#	57364
#
# Disc length: 1049 seconds
#
# Revision: 1
# Processed by: cddbd v1.5.2PL0 Copyright (c) Steve Scherf et al.
# Submitted via: audiograbber 1.83.01
#
DISCID=2e041704
DTITLE=Mighty 44 - Push It (Maxi)
DYEAR=2004
DGENRE=Pop
TTITLE0=Push it (Radio edit)
TTITLE1=Push it (Planet Remix)
TTITLE2=Push it (Elastinen Remix)
TTITLE3=Push it (Extended Version)
EXTD=
EXTT0=
EXTT1=
EXTT2=
EXTT3=
PLAYORDER=
